<svg xmlns="http://www.w3.org/2000/svg" viewBox="0 0 750 1334">
  <rect width="750" height="1334" fill="#1a1a1a"/>
  <rect x="40" y="60" width="670" height="1214" rx="40" fill="#222" stroke="#333" stroke-width="2"/>
  <rect x="40" y="60" width="670" height="200" rx="40" fill="url(#grad)"/>
  <defs>
    <linearGradient id="grad" x1="0" y1="0" x2="1" y2="0">
      <stop offset="0%" stop-color="#1a1a1a"/>
      <stop offset="100%" stop-color="#333"/>
    </linearGradient>
  </defs>
  <text x="375" y="140" font-family="-apple-system,BlinkMacSystemFont,'Segoe UI',Roboto,sans-serif" font-size="40" font-weight="700" fill="#D4AF37" text-anchor="middle">✂️ FILO</text>
  <text x="375" y="190" font-family="sans-serif" font-size="16" fill="#888" text-anchor="middle">Barbería Premium</text>
  <rect x="80" y="300" width="590" height="120" rx="20" fill="#2a2a2a"/>
  <text x="120" y="345" font-family="sans-serif" font-size="20" fill="#D4AF37">💇 Corte Clásico</text>
  <text x="120" y="375" font-family="sans-serif" font-size="14" fill="#aaa">30 min · €15 · 100 XP</text>
  <text x="580" y="360" font-family="sans-serif" font-size="14" fill="#D4AF37" text-anchor="end">Seleccionar →</text>
  <rect x="80" y="440" width="590" height="120" rx="20" fill="#2a2a2a"/>
  <text x="120" y="485" font-family="sans-serif" font-size="20" fill="#D4AF37">✨ Degradado</text>
  <text x="120" y="515" font-family="sans-serif" font-size="14" fill="#aaa">40 min · €18 · 120 XP</text>
  <text x="580" y="500" font-family="sans-serif" font-size="14" fill="#D4AF37" text-anchor="end">Seleccionar →</text>
  <rect x="80" y="580" width="590" height="120" rx="20" fill="#2a2a2a"/>
  <text x="120" y="625" font-family="sans-serif" font-size="20" fill="#D4AF37">🧔 Barba</text>
  <text x="120" y="655" font-family="sans-serif" font-size="14" fill="#aaa">20 min · €10 · 80 XP</text>
  <text x="580" y="640" font-family="sans-serif" font-size="14" fill="#D4AF37" text-anchor="end">Seleccionar →</text>
  <rect x="80" y="900" width="590" height="80" rx="40" fill="#D4AF37"/>
  <text x="375" y="948" font-family="sans-serif" font-size="18" font-weight="600" fill="#1a1a1a" text-anchor="middle">Reservar ahora</text>
  <text x="375" y="1050" font-family="sans-serif" font-size="14" fill="#888" text-anchor="middle">📅 Reservá sin instalar nada</text>
  <text x="375" y="1200" font-family="sans-serif" font-size="12" fill="#666" text-anchor="middle">filo by Codetix</text>
</svg>